<svg xmlns="http://www.w3.org/2000/svg" width="268" height="364" fill="none"><path fill="#fff" d="M230.095 248.459c0 7.538-11.187 28.339-44.442 41.034-20.187 7.713-37.511 16.474-51.686 26.139-14.131-9.643-31.447-18.404-51.664-26.139-33.226-12.688-44.406-33.488-44.406-41.026V128.512A190.072 190.072 0 0 1 0 122.117v126.35c0 13.583 6.348 28.506 17.87 42.016 12.36 14.501 29.968 26.395 50.9 34.384 28.036 10.721 44.303 21.661 53.012 28.958L133.931 364l12.163-10.146c8.775-7.319 25.107-18.28 53.093-28.979 20.946-7.997 38.553-19.884 50.928-34.384C261.645 276.973 268 262.05 268 248.467v-126.35a190.163 190.163 0 0 1-37.897 6.395v119.955l-.008-.008Zm-127.343-28.994v25.491h18.49v18.077h25.508v-18.077h19.339v-25.491H146.75v-21.333h19.339v-25.491H146.75v-19.876h19.339v-25.491H146.75v-14.435h-25.508v14.435h-18.49v25.491h18.49v19.876h-18.49v25.491h18.49v21.333h-18.49ZM216.926 50.291c-29.618 0-66.962-13.212-82.93-50.291-15.968 37.079-53.311 50.29-82.93 50.29-16.303 0-34.938-4.012-51.066-13.787v42.855c15.99 5.783 33.291 8.813 51.067 8.813 26.098 0 51.198-6.468 72.58-18.711a126.188 126.188 0 0 0 10.342-6.62 127.523 127.523 0 0 0 10.349 6.62c21.383 12.236 46.49 18.71 72.581 18.71 17.775 0 35.077-3.022 51.066-8.812V36.503c-16.128 9.782-34.763 13.788-51.066 13.788h.007Z"/></svg>